<?xml version="1.0" encoding="UTF-8" standalone="no"?>
<!-- Created with Inkscape (http://www.inkscape.org/) -->

<svg
   xmlns:dc="http://purl.org/dc/elements/1.1/"
   xmlns:cc="http://creativecommons.org/ns#"
   xmlns:rdf="http://www.w3.org/1999/02/22-rdf-syntax-ns#"
   xmlns:svg="http://www.w3.org/2000/svg"
   xmlns="http://www.w3.org/2000/svg"
   xmlns:sodipodi="http://sodipodi.sourceforge.net/DTD/sodipodi-0.dtd"
   xmlns:inkscape="http://www.inkscape.org/namespaces/inkscape"
   width="1000mm"
   height="246.5461mm"
   viewBox="0 0 999.99998 246.5461"
   version="1.1"
   id="svg8"
   sodipodi:docname="banner-cf-s3-https.svg"
   inkscape:export-filename="/home/lucas/workspace/lucassabreu/lucassabreu.github.io-hugo/content/uploads/banner-cf-s3-https.svg.png"
   inkscape:export-xdpi="25.4"
   inkscape:export-ydpi="25.4"
   inkscape:version="0.92.2 2405546, 2018-03-11">
  <defs
     id="defs2" />
  <sodipodi:namedview
     id="base"
     pagecolor="#ffffff"
     bordercolor="#666666"
     borderopacity="1.0"
     inkscape:pageopacity="0.0"
     inkscape:pageshadow="2"
     inkscape:zoom="0.24748737"
     inkscape:cx="944.47953"
     inkscape:cy="347.82133"
     inkscape:document-units="mm"
     inkscape:current-layer="layer1"
     showgrid="false"
     showguides="false"
     inkscape:window-width="1366"
     inkscape:window-height="739"
     inkscape:window-x="0"
     inkscape:window-y="29"
     inkscape:window-maximized="1" />
  <metadata
     id="metadata5">
    <rdf:RDF>
      <cc:Work
         rdf:about="">
        <dc:format>image/svg+xml</dc:format>
        <dc:type
           rdf:resource="http://purl.org/dc/dcmitype/StillImage" />
        <dc:title></dc:title>
      </cc:Work>
    </rdf:RDF>
  </metadata>
  <g
     inkscape:label="Camada 1"
     inkscape:groupmode="layer"
     id="layer1"
     transform="translate(736.97449,-216.81709)">
    <rect
       id="rect3956-5-3"
       width="500"
       height="246.5461"
       x="-236.97449"
       y="216.81709"
       style="fill:#ec912d;fill-opacity:1;stroke-width:0.13092305"
       inkscape:export-filename="/home/lucas/workspace/lucassabreu/lucassabreu.github.io-hugo/content/uploads/rect3956-5-3.png"
       inkscape:export-xdpi="25.4"
       inkscape:export-ydpi="25.4" />
    <rect
       id="rect3956-5"
       width="500"
       height="246.5461"
       x="-736.97449"
       y="216.81709"
       style="fill:#ffffff;fill-opacity:1;stroke-width:0.13092305"
       inkscape:export-filename="/home/lucas/workspace/lucassabreu/lucassabreu.github.io-hugo/content/uploads/rect3956-5-3.png"
       inkscape:export-xdpi="25.4"
       inkscape:export-ydpi="25.4" />
    <g
       id="g3950"
       transform="matrix(0.48476544,0,0,0.48476544,-549.02446,231.07932)"
       inkscape:export-filename="/home/lucas/workspace/lucassabreu/lucassabreu.github.io-hugo/content/uploads/rect3956-5-3.png"
       inkscape:export-xdpi="25.4"
       inkscape:export-ydpi="25.4">
      <path
         id="path3909"
         d="M 20.624,53.686 0,64 v 181.02 l 20.624,10.254 0.124,-0.149 V 53.828 l -0.124,-0.142"
         inkscape:connector-curvature="0"
         style="fill:#8c3123" />
      <path
         id="path3911"
         d="M 131,229 20.624,255.274 V 53.686 L 131,79.387 V 229"
         inkscape:connector-curvature="0"
         style="fill:#e05243" />
      <path
         id="path3913"
         d="m 81.178,187.866 46.818,5.96 0.294,-0.678 0.263,-76.77 -0.557,-0.6 -46.818,5.874 v 66.214"
         inkscape:connector-curvature="0"
         style="fill:#8c3123" />
      <path
         id="path3915"
         d="m 127.996,229.295 107.371,26.035 0.169,-0.269 -0.003,-201.195 -0.17,-0.18 -107.367,25.996 v 149.613"
         inkscape:connector-curvature="0"
         style="fill:#8c3123" />
      <path
         id="path3917"
         d="m 174.827,187.866 -46.831,5.96 v -78.048 l 46.831,5.874 v 66.214"
         inkscape:connector-curvature="0"
         style="fill:#e05243" />
      <path
         id="path3919"
         d="m 174.827,89.631 -46.831,8.535 -46.818,-8.535 46.759,-12.256 46.89,12.256"
         inkscape:connector-curvature="0"
         style="fill:#5e1f18" />
      <path
         id="path3921"
         d="m 174.827,219.801 -46.831,-8.591 -46.818,8.591 46.761,13.053 46.888,-13.053"
         inkscape:connector-curvature="0"
         style="fill:#f2b0a9" />
      <path
         id="path3923"
         d="m 81.178,89.631 46.818,-11.586 0.379,-0.117 V 0.313 L 127.996,0 81.178,23.413 v 66.218"
         inkscape:connector-curvature="0"
         style="fill:#8c3123" />
      <path
         id="path3925"
         d="M 174.827,89.631 127.996,78.045 V 0 l 46.831,23.413 v 66.218"
         inkscape:connector-curvature="0"
         style="fill:#e05243" />
      <path
         id="path3927"
         d="M 127.996,309.428 81.173,286.023 v -66.217 l 46.823,11.582 0.689,0.783 -0.187,75.906 -0.502,1.351"
         inkscape:connector-curvature="0"
         style="fill:#8c3123" />
      <path
         id="path3929"
         d="m 127.996,309.428 46.827,-23.405 v -66.217 l -46.827,11.582 v 78.04 M 235.367,53.686 256,64 v 181.02 l -20.633,10.31 V 53.686"
         inkscape:connector-curvature="0"
         style="fill:#e05243" />
    </g>
    <text
       xml:space="preserve"
       style="font-style:normal;font-weight:normal;font-size:42.33333588px;line-height:1.25;font-family:sans-serif;text-align:center;letter-spacing:0px;word-spacing:0px;text-anchor:middle;fill:#ec912d;fill-opacity:1;stroke:none;stroke-width:0.17250036"
       x="-486.63757"
       y="432.48367"
       id="text3960"
       inkscape:export-filename="/home/lucas/workspace/lucassabreu/lucassabreu.github.io-hugo/content/uploads/rect3956-5-3.png"
       inkscape:export-xdpi="25.4"
       inkscape:export-ydpi="25.4"><tspan
         sodipodi:role="line"
         id="tspan3958"
         x="-486.63757"
         y="432.48367"
         style="font-size:42.33333588px;text-align:center;text-anchor:middle;fill:#ec912d;fill-opacity:1;stroke-width:0.17250036">S3</tspan></text>
    <g
       id="g3907"
       transform="matrix(0.48758764,0,0,0.48758764,-49.385705,231.07932)"
       inkscape:export-filename="/home/lucas/workspace/lucassabreu/lucassabreu.github.io-hugo/content/uploads/rect3956-5-3.png"
       inkscape:export-xdpi="25.4"
       inkscape:export-ydpi="25.4">
      <path
         id="path3833"
         d="m 166.01,127.465 59.202,-6.314 30.676,6.369 0.111,0.068 -56.558,3.374 -33.484,-3.442 z"
         inkscape:connector-curvature="0"
         style="fill:#5e1f18" />
      <path
         id="path3835"
         d="m 165.958,127.521 59.204,-4.625 0.407,-0.593 0.002,-73.044 -0.407,-0.835 -59.206,15.397 v 63.7"
         inkscape:connector-curvature="0"
         style="fill:#8c3123" />
      <path
         id="path3837"
         d="m 256,127.59 -30.838,-4.694 0.002,-74.472 30.835,15.428 0.001,63.738"
         inkscape:connector-curvature="0"
         style="fill:#e05243" />
      <path
         id="path3839"
         d="m 165.958,180.115 0.865,0.606 58.349,3.959 29.772,-3.959 1.055,-0.579 -56.557,-3.475 -33.484,3.448"
         inkscape:connector-curvature="0"
         style="fill:#f2b0a9" />
      <path
         id="path3841"
         d="m 165.958,180.115 59.214,4.405 0.183,0.246 -0.045,73.942 -0.146,0.386 -59.206,-15.275 v -63.704"
         inkscape:connector-curvature="0"
         style="fill:#8c3123" />
      <path
         id="path3843"
         d="m 255.999,180.142 -30.827,4.378 -0.008,74.574 30.835,-15.309 v -63.643"
         inkscape:connector-curvature="0"
         style="fill:#e05243" />
      <g
         id="g3851">
        <path
           id="path3845"
           d="m 89.119,127.408 -58.53,-5.014 -30.394,5.046 -0.193,0.151 56.557,3.374 32.874,-3.376 -0.314,-0.18 z"
           inkscape:connector-curvature="0"
           style="fill:#5e1f18" />
        <path
           id="path3847"
           d="m 0.002,127.59 30.557,-4.474 0.899,-0.637 v -73.2 L 30.559,48.424 0.002,63.855 v 63.735"
           inkscape:connector-curvature="0"
           style="fill:#8c3123" />
        <path
           id="path3849"
           d="M 89.433,127.588 30.559,123.116 V 48.424 l 58.877,15.397 -0.003,63.767"
           inkscape:connector-curvature="0"
           style="fill:#e05243" />
      </g>
      <g
         id="g3859">
        <path
           id="path3853"
           d="M 89.433,180.142 88.082,181.127 30.559,185.44 0.976,181.127 0,180.142 l 56.559,-3.475 32.874,3.475"
           inkscape:connector-curvature="0"
           style="fill:#f2b0a9" />
        <path
           id="path3855"
           d="m 0,180.142 30.558,4.34 0.777,0.952 0.083,72.333 -0.859,1.327 L 0.002,243.785 0,180.142"
           inkscape:connector-curvature="0"
           style="fill:#8c3123" />
        <path
           id="path3857"
           d="m 89.433,180.142 -58.875,4.34 0.001,74.612 58.874,-15.275 v -63.677"
           inkscape:connector-curvature="0"
           style="fill:#e05243" />
      </g>
      <g
         id="g3867">
        <path
           id="path3861"
           d="m 189.104,189.66 -61.103,-6.026 -61.712,6.027 0.87,0.735 60.541,9.617 60.533,-9.617 0.871,-0.736"
           inkscape:connector-curvature="0"
           style="fill:#f2b0a9" />
        <path
           id="path3863"
           d="m 66.289,189.661 61.411,8.998 0.623,0.833 0.079,106.959 -0.702,1.186 -61.411,-30.706 v -87.27"
           inkscape:connector-curvature="0"
           style="fill:#8c3123" />
        <path
           id="path3865"
           d="m 189.104,189.66 -61.404,8.999 v 108.978 l 61.405,-30.706 -10e-4,-87.271"
           inkscape:connector-curvature="0"
           style="fill:#e05243" />
      </g>
      <g
         id="g3875">
        <path
           id="path3869"
           d="m 128.001,123.933 -61.712,-5.958 0.159,-0.091 61.249,-9.502 61.222,9.524 0.186,0.069 z"
           inkscape:connector-curvature="0"
           style="fill:#5e1f18" />
        <path
           id="path3871"
           d="m 66.289,117.975 61.411,-8.949 0.294,-0.268 L 127.858,0.165 127.7,0 66.289,30.709 v 87.266"
           inkscape:connector-curvature="0"
           style="fill:#8c3123" />
        <path
           id="path3873"
           d="M 189.105,117.975 127.7,109.026 V 0 l 61.405,30.709 v 87.266"
           inkscape:connector-curvature="0"
           style="fill:#e05243" />
      </g>
    </g>
    <text
       xml:space="preserve"
       style="font-style:normal;font-weight:normal;font-size:42.33333588px;line-height:1.25;font-family:sans-serif;text-align:center;letter-spacing:0px;word-spacing:0px;text-anchor:middle;fill:#ffffff;fill-opacity:1;stroke:none;stroke-width:0.17250036"
       x="12.295534"
       y="432.88797"
       id="text3960-3"
       inkscape:export-filename="/home/lucas/workspace/lucassabreu/lucassabreu.github.io-hugo/content/uploads/rect3956-5-3.png"
       inkscape:export-xdpi="25.4"
       inkscape:export-ydpi="25.4"><tspan
         sodipodi:role="line"
         id="tspan3958-6"
         x="12.295529"
         y="432.88797"
         style="font-size:42.33333588px;text-align:center;text-anchor:middle;fill:#ffffff;fill-opacity:1;stroke-width:0.17250036">CloudFront</tspan></text>
    <g
       id="g5227"
       transform="translate(0,23.273064)"
       inkscape:export-filename="/home/lucas/workspace/lucassabreu/lucassabreu.github.io-hugo/content/uploads/rect3956-5-3.png"
       inkscape:export-xdpi="25.4"
       inkscape:export-ydpi="25.4">
      <circle
         r="37.904766"
         cy="316.81708"
         cx="-236.97449"
         id="path5131"
         style="fill:#ec912d;fill-opacity:1;stroke-width:0.20729165" />
      <circle
         r="30.335732"
         cy="316.81708"
         cx="-236.97449"
         id="path5131-5"
         style="fill:#ffffff;fill-opacity:1;stroke-width:0.16589853" />
      <rect
         y="311.25452"
         x="-259.22467"
         height="11.125088"
         width="44.500351"
         id="rect5148"
         style="fill:#ec912d;fill-opacity:1;stroke-width:0.07868231" />
      <rect
         transform="rotate(90)"
         y="231.41194"
         x="294.56689"
         height="11.125088"
         width="44.500351"
         id="rect5148-6"
         style="fill:#ec912d;fill-opacity:1;stroke-width:0.07868231" />
    </g>
  </g>
</svg>
